<?xml version="1.0" encoding="UTF-8"?>
<svg width="435px" height="119px" viewBox="0 0 435 119" version="1.1" xmlns="http://www.w3.org/2000/svg" xmlns:xlink="http://www.w3.org/1999/xlink">
    <title>logoInlineLeftBlack</title>
    <g id="Page-1" stroke="none" stroke-width="1" fill="none" fill-rule="evenodd">
        <g id="logoInlineLeftBlack" transform="translate(-0.000000, 0.025847)" fill="#000000">
            <path d="M54.1316222,53.3434879 L74.1401546,106.494403 L54.1316222,118.09394 L54.1316222,53.3434879 Z M211.234375,6.13626227 C225.635417,6.13626227 236.641276,10.0555331 244.251953,17.8940748 C254.414714,27.1453769 259.496094,40.9995435 259.496094,59.4565748 C259.496094,77.5490227 254.414714,91.4031894 244.251953,101.019075 C236.641276,108.857616 225.635417,112.776887 211.234375,112.776887 C196.833333,112.776887 185.827474,108.857616 178.216797,101.019075 C168.008464,91.4031894 162.904297,77.5490227 162.904297,59.4565748 C162.904297,40.9995435 168.008464,27.1453769 178.216797,17.8940748 C185.827474,10.0555331 196.833333,6.13626227 211.234375,6.13626227 Z M396.501953,33.069856 C409.307943,33.069856 418.855469,37.0119133 425.144531,44.8960279 C431.433594,52.7801425 434.578125,62.0998039 434.578125,72.8550123 C434.578125,83.7925123 431.433594,93.1463534 425.144531,100.916536 C418.855469,108.686718 409.307943,112.571809 396.501953,112.571809 C383.695964,112.571809 374.148438,108.686718 367.859375,100.916536 C361.570313,93.1463534 358.425781,83.7925123 358.425781,72.8550123 C358.425781,62.0998039 361.570313,52.7801425 367.859375,44.8960279 C374.148438,37.0119133 383.695964,33.069856 396.501953,33.069856 Z M297.166667,15.3647779 L297.166667,36.1460279 L309.266276,36.1460279 L309.266276,50.022981 L297.166667,50.022981 L297.166667,89.397981 L297.168386,89.745188 C297.197037,92.5960234 297.583834,94.382957 298.328776,95.1059888 C299.103516,95.857942 301.473307,96.2339185 305.438151,96.2339185 C306.030599,96.2339185 306.657227,96.2225253 307.318034,96.1997388 C307.978841,96.1769524 308.628255,96.1427727 309.266276,96.0971998 L309.266276,96.0971998 L309.266276,110.657747 L300.03776,110.999544 L299.488917,111.016387 C290.581635,111.253986 284.475521,109.65332 281.170573,106.214387 C278.983073,103.981314 277.889323,100.540559 277.889323,95.8921216 L277.889323,95.8921216 L277.889323,50.022981 L267.498698,50.022981 L267.498698,36.1460279 L277.889323,36.1460279 L277.889323,15.3647779 L297.166667,15.3647779 Z M342.972005,35.4624341 L342.972005,109.974153 L323.216146,109.974153 L323.216146,35.4624341 L342.972005,35.4624341 Z M396.433594,49.5444654 C390.736979,49.5444654 386.350586,51.561067 383.274414,55.5942701 C380.198242,59.6274732 378.660156,65.3810539 378.660156,72.8550123 C378.660156,80.3289706 380.198242,86.0939446 383.274414,90.1499341 C386.350586,94.2059237 390.736979,96.2339185 396.433594,96.2339185 C402.130208,96.2339185 406.505208,94.2059237 409.558594,90.1499341 C412.611979,86.0939446 414.138672,80.3289706 414.138672,72.8550123 C414.138672,65.3810539 412.611979,59.6274732 409.558594,55.5942701 C406.505208,51.561067 402.130208,49.5444654 396.433594,49.5444654 Z M211.234375,23.9780591 C202.894531,23.9780591 196.240885,27.054231 191.273438,33.2065748 C186.30599,39.3589185 183.822266,48.1089185 183.822266,59.4565748 C183.822266,70.804231 186.30599,79.554231 191.273438,85.7065748 C196.240885,91.8589185 202.894531,94.9350904 211.234375,94.9350904 C219.574219,94.9350904 226.193685,91.8589185 231.092773,85.7065748 C235.991862,79.554231 238.441406,70.804231 238.441406,59.4565748 C238.441406,48.1544914 235.991862,39.4158847 231.092773,33.2407545 C226.193685,27.0656243 219.574219,23.9780591 211.234375,23.9780591 Z M116.363967,46.2456026 L71.5294268,92.6455362 L54.1316222,46.2456026 L116.363967,46.2456026 Z M54.1316222,1.37272509 L94.148687,42.9741529 L54.1316222,42.9741529 L54.1316222,1.37272509 Z M50.9525441,0 L50.9525441,42.9741529 L5.71809681,0 L50.9525441,0 Z M116.803559,10.7620155 L116.803559,42.9741529 L97.0588945,42.9741529 L87.7771553,33.5172118 L108.231927,10.7620155 L116.803559,10.7620155 Z M342.972005,8.59719977 L342.972005,26.5757154 L323.216146,26.5757154 L323.216146,8.59719977 L342.972005,8.59719977 Z M120.052828,10.9741529 L132.052828,22.9741529 L120.052828,22.9741529 L120.052828,10.9741529 Z M7.07192884,4.65971351 L22.0886189,18.7358957 L0,6.75699701 L7.07192884,4.65971351 Z" id="Combined-Shape"></path>
        </g>
    </g>
</svg>